<svg xmlns="http://www.w3.org/2000/svg" version="1.1" xmlns:xlink="http://www.w3.org/1999/xlink" xmlns:svgjs="http://svgjs.dev/svgjs" width="200" height="57" viewBox="0 0 1500 428"><g transform="matrix(1,0,0,1,-0.9090909090909918,-0.5153347617531381)"><svg viewBox="0 0 396 113" data-background-color="#ffffff" preserveAspectRatio="xMidYMid meet" height="428" width="1500" xmlns="http://www.w3.org/2000/svg" xmlns:xlink="http://www.w3.org/1999/xlink"><g id="tight-bounds" transform="matrix(1,0,0,1,0.2400000000000091,0.13605800952828417)"><svg viewBox="0 0 395.52 112.72758764435538" height="112.72758764435538" width="395.52"><g><svg viewBox="0 0 599.5259651234554 170.87155081543554" height="112.72758764435538" width="395.52"><g transform="matrix(1,0,0,1,204.0059651234554,50.34706000672416)"><svg viewBox="0 0 395.52 70.17743080198721" height="70.17743080198721" width="395.52"><g id="textblocktransform"><svg viewBox="0 0 395.52 70.17743080198721" height="70.17743080198721" width="395.52" id="textblock"><g><svg viewBox="0 0 395.52 70.17743080198721" height="70.17743080198721" width="395.52"><g transform="matrix(1,0,0,1,0,0)"><svg width="395.52" viewBox="-0.85 -36 281.77000000000004 50" height="70.17743080198721" data-palette-color="#c09c88"><path d="M-0.85 4.35L-0.85 4.35Q-0.55 3.65 0.8 0.68 2.15-2.3 4.33-7.08 6.5-11.85 9.22-17.93 11.95-24 15-30.8L15-30.8Q15.15-31.15 15.33-31.73 15.5-32.3 15.5-32.85L15.5-32.85Q15.5-33.4 15.18-33.77 14.85-34.15 13.8-34.15L13.8-34.15Q11.7-34.15 10.33-32.73 8.95-31.3 8.28-29.2 7.6-27.1 7.6-25.05L7.6-25.05Q7.6-24.55 7.63-24.2 7.65-23.85 7.7-23.5L7.7-23.5Q6.75-23.5 6.18-24.18 5.6-24.85 5.33-25.83 5.05-26.8 5.05-27.6L5.05-27.6Q5.05-29.25 5.95-30.75 6.85-32.25 8.28-33.45 9.7-34.65 11.43-35.33 13.15-36 14.8-36L14.8-36Q16.45-36 17.57-35.08 18.7-34.15 19.28-31.75 19.85-29.35 19.85-24.8L19.85-24.8Q19.85-21.7 19.63-18.2 19.4-14.7 19.15-11.3 18.9-7.9 18.8-5.1L18.8-5.1Q19.6-8.15 21.08-11.6 22.55-15.05 24.33-18.48 26.1-21.9 27.85-24.9 29.6-27.9 31-30.1 32.4-32.3 33.05-33.3L33.05-33.3Q33.75-34.3 34.25-34.83 34.75-35.35 35.55-35.35L35.55-35.35Q36.25-35.35 37.15-35L37.15-35Q36.8-34.1 36.18-32.33 35.55-30.55 34.9-28L34.9-28Q34.1-24.95 33.3-21.08 32.5-17.2 31.83-13.2 31.15-9.2 30.75-5.68 30.35-2.15 30.35 0.25L30.35 0.25Q30.35 1.35 30.45 1.95 30.55 2.55 30.73 3.03 30.9 3.5 31.1 4.35L31.1 4.35Q29.4 4.35 28.5 3.8 27.6 3.25 27.3 2.02 27 0.8 27-1.25L27-1.25Q27-7.2 28.53-14.03 30.05-20.85 32-28.2L32-28.2Q30.55-26.35 28.98-23.53 27.4-20.7 25.83-17.43 24.25-14.15 22.83-10.88 21.4-7.6 20.3-4.8 19.2-2 18.6-0.15L18.6-0.15Q18.3-0.05 18.2 0 18.1 0.05 17.85 0.05L17.85 0.05Q16.5 0.05 16.07-1.55 15.65-3.15 15.65-6.05L15.65-6.05Q15.65-8.1 15.78-10.93 15.9-13.75 16.05-16.75 16.2-19.75 16.32-22.53 16.45-25.3 16.45-27.3L16.45-27.3Q16.45-28.3 16.43-28.95 16.4-29.6 16.35-30.1L16.35-30.1Q12.35-20.8 9.65-14.23 6.95-7.65 5.13-3.55 3.3 0.55 1.9 2.45 0.5 4.35-0.85 4.35ZM38.8 14L38.8 14Q37.55 14 36.6 13.33 35.65 12.65 35.65 11.35L35.65 11.35Q35.65 9.75 36.45 8.5 37.25 7.25 38.6 6.2 39.95 5.15 41.7 4.2 43.45 3.25 45.35 2.3L45.35 2.3Q46.05 0.45 46.77-1.83 47.5-4.1 48.15-6.85L48.15-6.85Q46.55-4.25 44.72-2.38 42.9-0.5 40.85-0.5L40.85-0.5Q39.9-0.5 38.97-0.93 38.05-1.35 37.45-2.25 36.85-3.15 36.85-4.55L36.85-4.55Q36.85-5.95 37.32-7.8 37.8-9.65 38.5-11.4 39.2-13.15 39.95-14.3 40.7-15.45 41.25-15.45L41.25-15.45Q41.45-15.45 41.97-15.3 42.5-15.15 42.97-14.88 43.45-14.6 43.45-14.3L43.45-14.3Q43-13.65 42.45-12.45 41.9-11.25 41.37-9.78 40.85-8.3 40.5-6.9 40.15-5.5 40.15-4.5L40.15-4.5Q40.15-3.6 40.55-3.05 40.95-2.5 41.95-2.5L41.95-2.5Q42.9-2.5 44.07-3.43 45.25-4.35 46.42-5.8 47.6-7.25 48.6-8.9L48.6-8.9Q48.75-9.45 48.87-10.03 49-10.6 49.1-11.2L49.1-11.2Q49.25-11.9 49.82-12.83 50.4-13.75 51.65-13.75L51.65-13.75Q51.9-13.75 52.15-13.73 52.4-13.7 52.7-13.6L52.7-13.6Q52.7-12.8 52.22-10.63 51.75-8.45 50.87-5.55 50-2.65 48.8 0.4L48.8 0.4Q51.15-0.5 53.4-2.58 55.65-4.65 57.05-8.1L57.05-8.1 57.7-7.6Q56.95-5.2 55.42-3.43 53.9-1.65 52-0.38 50.1 0.9 48.25 1.75L48.25 1.75Q46.95 4.95 45.42 7.75 43.9 10.55 42.22 12.28 40.55 14 38.8 14ZM38.55 12.4L38.55 12.4Q39.3 12.4 41.07 10.43 42.85 8.45 44.85 3.5L44.85 3.5Q42.8 4.6 41.05 5.68 39.3 6.75 38.25 8 37.2 9.25 37.2 10.9L37.2 10.9Q37.2 11.3 37.5 11.85 37.8 12.4 38.55 12.4ZM71.84 4.35L71.84 4.35Q72.14 2.6 72.54 0.78 72.94-1.05 73.57-3.33 74.19-5.6 75.09-8.6 75.99-11.6 77.34-15.7L77.34-15.7Q76.54-15.65 75.72-15.55 74.89-15.45 74.04-15.35L74.04-15.35Q74.09-16.6 75.22-17.32 76.34-18.05 78.19-18.4L78.19-18.4Q78.54-19.45 78.92-20.58 79.29-21.7 79.69-22.93 80.09-24.15 80.54-25.43 80.99-26.7 81.47-28.1 81.94-29.5 82.44-30.95L82.44-30.95Q82.64-31.5 82.89-32.33 83.14-33.15 83.14-33.9L83.14-33.9Q83.14-34.3 83.02-34.45 82.89-34.6 82.44-34.6L82.44-34.6Q81.24-34.6 80.12-33.63 78.99-32.65 78.12-31.15 77.24-29.65 76.74-28.05 76.24-26.45 76.24-25.2L76.24-25.2Q76.24-24.75 76.32-24.3 76.39-23.85 76.49-23.5L76.49-23.5Q74.84-23.5 74.17-24.33 73.49-25.15 73.49-26.35L73.49-26.35Q73.49-28.05 74.49-29.75 75.49-31.45 77.07-32.88 78.64-34.3 80.37-35.15 82.09-36 83.49-36L83.49-36Q84.84-36 85.32-35.25 85.79-34.5 85.79-33.6L85.79-33.6Q85.79-33.05 85.67-32.5 85.54-31.95 85.39-31.45L85.39-31.45 81.49-18.75Q82.19-18.8 82.92-18.82 83.64-18.85 84.39-18.85L84.39-18.85Q86.74-18.85 88.87-18.73 90.99-18.6 92.89-18.4L92.89-18.4Q93.89-21.6 94.87-24.7 95.84-27.8 96.67-30.13 97.49-32.45 97.94-33.4L97.94-33.4Q98.14-33.8 98.49-34.4 98.84-35 99.42-35.5 99.99-36 100.69-36L100.69-36Q99.99-34.15 99.09-31.28 98.19-28.4 97.27-25 96.34-21.6 95.44-18.2L95.44-18.2Q96.44-18.15 97.37-18.07 98.29-18 99.19-18L99.19-18Q98.09-16.85 97.04-16.63 95.99-16.4 94.99-16.4L94.99-16.4Q94.54-14.55 94.14-12.83 93.74-11.1 93.44-9.55L93.44-9.55Q92.54-5.3 92.17-2.3 91.79 0.7 91.79 2.55L91.79 2.55Q91.79 3.15 91.82 3.58 91.84 4 91.89 4.35L91.89 4.35Q89.94 4.15 89.19 3.25 88.44 2.35 88.44 0.45L88.44 0.45Q88.44-0.85 88.74-2.83 89.04-4.8 89.64-7.1L89.64-7.1Q90.04-8.6 90.74-11.08 91.44-13.55 92.29-16.35L92.29-16.35Q89.24-16.35 87.19-16.3 85.14-16.25 83.64-16.2 82.14-16.15 80.64-16L80.64-16Q79.74-13.1 78.84-10.25 77.94-7.4 77.19-5.03 76.44-2.65 75.94-1 75.44 0.65 75.29 1.15L75.29 1.15Q74.79 2.85 73.72 3.6 72.64 4.35 71.84 4.35ZM100.84 14L100.84 14Q99.59 14 98.64 13.33 97.69 12.65 97.69 11.35L97.69 11.35Q97.69 9.75 98.49 8.5 99.29 7.25 100.64 6.2 101.99 5.15 103.74 4.2 105.49 3.25 107.39 2.3L107.39 2.3Q108.09 0.45 108.81-1.83 109.54-4.1 110.19-6.85L110.19-6.85Q108.59-4.25 106.77-2.38 104.94-0.5 102.89-0.5L102.89-0.5Q101.94-0.5 101.02-0.93 100.09-1.35 99.49-2.25 98.89-3.15 98.89-4.55L98.89-4.55Q98.89-5.95 99.36-7.8 99.84-9.65 100.54-11.4 101.24-13.15 101.99-14.3 102.74-15.45 103.29-15.45L103.29-15.45Q103.49-15.45 104.02-15.3 104.54-15.15 105.02-14.88 105.49-14.6 105.49-14.3L105.49-14.3Q105.04-13.65 104.49-12.45 103.94-11.25 103.41-9.78 102.89-8.3 102.54-6.9 102.19-5.5 102.19-4.5L102.19-4.5Q102.19-3.6 102.59-3.05 102.99-2.5 103.99-2.5L103.99-2.5Q104.94-2.5 106.11-3.43 107.29-4.35 108.47-5.8 109.64-7.25 110.64-8.9L110.64-8.9Q110.79-9.45 110.91-10.03 111.04-10.6 111.14-11.2L111.14-11.2Q111.29-11.9 111.86-12.83 112.44-13.75 113.69-13.75L113.69-13.75Q113.94-13.75 114.19-13.73 114.44-13.7 114.74-13.6L114.74-13.6Q114.74-12.8 114.27-10.63 113.79-8.45 112.91-5.55 112.04-2.65 110.84 0.4L110.84 0.4Q113.19-0.5 115.44-2.58 117.69-4.65 119.09-8.1L119.09-8.1 119.74-7.6Q118.99-5.2 117.47-3.43 115.94-1.65 114.04-0.38 112.14 0.9 110.29 1.75L110.29 1.75Q108.99 4.95 107.47 7.75 105.94 10.55 104.27 12.28 102.59 14 100.84 14ZM100.59 12.4L100.59 12.4Q101.34 12.4 103.11 10.43 104.89 8.45 106.89 3.5L106.89 3.5Q104.84 4.6 103.09 5.68 101.34 6.75 100.29 8 99.24 9.25 99.24 10.9L99.24 10.9Q99.24 11.3 99.54 11.85 99.84 12.4 100.59 12.4ZM120.04 14L120.04 14Q118.94 14 118.04 13.33 117.14 12.65 117.14 11.1L117.14 11.1Q117.14 9.6 118.06 8.33 118.99 7.05 120.44 5.98 121.89 4.9 123.61 4 125.34 3.1 126.89 2.3L126.89 2.3Q127.59 0.55 128.21-1.48 128.84-3.5 129.44-5.95L129.44-5.95Q127.54-3.2 125.46-1.38 123.39 0.45 121.29 0.45L121.29 0.45Q119.49 0.45 118.51-0.9 117.54-2.25 117.54-4.4L117.54-4.4Q117.54-7 118.81-9.35 120.09-11.7 122.14-13.5 124.19-15.3 126.49-16.32 128.79-17.35 130.79-17.35L130.79-17.35Q132.24-17.35 132.86-16.88 133.49-16.4 133.49-15.75L133.49-15.75Q133.49-15.3 133.24-15.05 132.99-14.8 132.89-14.75L132.89-14.75Q132.64-15.15 132.14-15.33 131.64-15.5 130.89-15.5L130.89-15.5Q128.94-15.5 127.11-14.35 125.29-13.2 123.89-11.4 122.49-9.6 121.66-7.68 120.84-5.75 120.84-4.15L120.84-4.15Q120.84-2.95 121.31-2.33 121.79-1.7 122.59-1.7L122.59-1.7Q124.04-1.7 126.06-3.63 128.09-5.55 129.99-8.3L129.99-8.3Q130.14-9 130.26-9.55 130.39-10.1 130.59-10.95L130.59-10.95Q130.74-11.65 131.31-12.58 131.89-13.5 133.14-13.5L133.14-13.5Q133.39-13.5 133.64-13.48 133.89-13.45 134.19-13.35L134.19-13.35Q134.19-12.55 133.71-10.43 133.24-8.3 132.36-5.48 131.49-2.65 130.34 0.35L130.34 0.35Q131.99-0.45 133.56-1.7 135.14-2.95 136.44-4.58 137.74-6.2 138.49-8.1L138.49-8.1 139.14-7.6Q138.39-5.35 136.74-3.5 135.09-1.65 133.21-0.3 131.34 1.05 129.79 1.8L129.79 1.8Q128.39 5.15 126.84 7.93 125.29 10.7 123.61 12.35 121.94 14 120.04 14ZM119.89 12.4L119.89 12.4Q120.89 12.4 122.61 10.43 124.34 8.45 126.34 3.65L126.34 3.65Q124.34 4.65 122.61 5.73 120.89 6.8 119.79 8 118.69 9.2 118.69 10.65L118.69 10.65Q118.69 11.45 119.04 11.93 119.39 12.4 119.89 12.4ZM141.19 1.3L141.19 1.3Q139.24 1.3 138.28 0.08 137.34-1.15 137.34-2.9L137.34-2.9Q137.34-4.05 137.76-5.8 138.19-7.55 138.89-9.47 139.59-11.4 140.51-13.1 141.44-14.8 142.49-15.88 143.53-16.95 144.53-16.95L144.53-16.95Q144.99-16.95 145.31-16.68 145.64-16.4 145.64-15.85L145.64-15.85Q145.64-15.25 144.86-13.9 144.09-12.55 143.03-10.8 141.99-9.05 141.21-7.13 140.44-5.2 140.44-3.45L140.44-3.45Q140.44-1.65 141.03-1.05 141.64-0.45 142.89-0.45L142.89-0.45Q144.59-0.45 146.51-2.15 148.44-3.85 150.59-8.1L150.59-8.1 151.03-7.6Q149.59-3.3 146.86-1 144.14 1.3 141.19 1.3ZM147.19-21.6L147.19-21.6Q146.39-21.6 145.76-22 145.14-22.4 145.14-23.25L145.14-23.25Q145.14-24.3 146.36-25.08 147.59-25.85 148.78-25.85L148.78-25.85Q149.53-25.85 149.99-25.5 150.44-25.15 150.44-24.3L150.44-24.3Q150.44-23.35 149.41-22.48 148.39-21.6 147.19-21.6ZM155.03 2.2L155.03 2.2Q151.98 2.2 150.46 0.53 148.93-1.15 148.93-3.6L148.93-3.6Q148.93-5.85 150.06-8.35 151.18-10.85 153.06-13.05 154.93-15.25 157.18-16.63 159.43-18 161.63-18L161.63-18Q162.78-18 163.76-17.4 164.73-16.8 164.73-14.95L164.73-14.95Q164.73-13.05 163.61-11.38 162.48-9.7 160.66-8.4 158.83-7.1 156.66-6.28 154.48-5.45 152.33-5.25L152.33-5.25Q152.23-4.75 152.18-4.3 152.13-3.85 152.13-3.45L152.13-3.45Q152.13-2.7 152.31-1.95 152.48-1.2 152.93-0.58 153.38 0.05 154.16 0.4 154.93 0.75 156.08 0.75L156.08 0.75Q158.23 0.75 160.33-0.48 162.43-1.7 164.23-3.7 166.03-5.7 167.28-8.1L167.28-8.1 167.88-7.65Q166.53-4.65 164.46-2.45 162.38-0.25 159.96 0.98 157.53 2.2 155.03 2.2ZM152.58-6.2L152.58-6.2Q153.93-6.65 155.63-7.53 157.33-8.4 158.91-9.6 160.48-10.8 161.51-12.25 162.53-13.7 162.53-15.3L162.53-15.3Q162.53-15.85 162.33-16.15 162.13-16.45 161.48-16.45L161.48-16.45Q160.28-16.45 158.93-15.53 157.58-14.6 156.33-13.1 155.08-11.6 154.08-9.8 153.08-8 152.58-6.2ZM182.43 1L182.43 1Q180.68 1 179.81 0.1 178.93-0.8 178.93-2.2L178.93-2.2Q178.93-3.25 179.31-4.4 179.68-5.55 180.03-6.78 180.38-8 180.38-9.15L180.38-9.15Q180.38-10.55 179.81-11.08 179.23-11.6 178.38-11.6L178.38-11.6Q176.83-11.6 175.23-10.33 173.63-9.05 172.13-7.08 170.63-5.1 169.33-3 168.03-0.9 167.03 0.75L167.03 0.75Q166.23 0.75 165.51 0.48 164.78 0.2 164.38-0.35L164.38-0.35Q164.38-0.6 164.91-1.9 165.43-3.2 166.13-5.1 166.83-7 167.38-9 167.93-11 167.93-12.65L167.93-12.65Q168.23-13 168.88-13.35 169.53-13.7 170.23-13.7L170.23-13.7Q171.58-13.7 171.58-12.4L171.58-12.4Q171.58-11.6 171.13-9.73 170.68-7.85 169.98-5.8L169.98-5.8Q171.33-7.85 173.01-9.88 174.68-11.9 176.58-13.25 178.48-14.6 180.38-14.6L180.38-14.6Q182.33-14.6 183.21-13.2 184.08-11.8 184.08-10.1L184.08-10.1Q184.08-8.55 183.58-7.23 183.08-5.9 182.56-4.67 182.03-3.45 182.03-2.2L182.03-2.2Q182.03-1.15 182.46-0.73 182.88-0.3 183.53-0.3L183.53-0.3Q184.78-0.3 186.03-1.48 187.28-2.65 188.46-4.45 189.63-6.25 190.53-8.1L190.53-8.1 191.08-7.45Q190.03-5 188.73-3.1 187.43-1.2 185.88-0.1 184.33 1 182.43 1ZM194.98 2.2L194.98 2.2Q191.93 2.2 190.4 0.53 188.88-1.15 188.88-3.6L188.88-3.6Q188.88-5.85 190-8.35 191.13-10.85 193-13.05 194.88-15.25 197.13-16.63 199.38-18 201.58-18L201.58-18Q202.73-18 203.7-17.4 204.68-16.8 204.68-14.95L204.68-14.95Q204.68-13.05 203.55-11.38 202.43-9.7 200.6-8.4 198.78-7.1 196.6-6.28 194.43-5.45 192.28-5.25L192.28-5.25Q192.18-4.75 192.13-4.3 192.08-3.85 192.08-3.45L192.08-3.45Q192.08-2.7 192.25-1.95 192.43-1.2 192.88-0.58 193.33 0.05 194.1 0.4 194.88 0.75 196.03 0.75L196.03 0.75Q198.18 0.75 200.28-0.48 202.38-1.7 204.18-3.7 205.98-5.7 207.23-8.1L207.23-8.1 207.83-7.65Q206.48-4.65 204.4-2.45 202.33-0.25 199.9 0.98 197.48 2.2 194.98 2.2ZM192.53-6.2L192.53-6.2Q193.88-6.65 195.58-7.53 197.28-8.4 198.85-9.6 200.43-10.8 201.45-12.25 202.48-13.7 202.48-15.3L202.48-15.3Q202.48-15.85 202.28-16.15 202.08-16.45 201.43-16.45L201.43-16.45Q200.23-16.45 198.88-15.53 197.53-14.6 196.28-13.1 195.03-11.6 194.03-9.8 193.03-8 192.53-6.2ZM223.57 4.35L223.57 4.35Q222.32 4.35 221.22 3.65 220.12 2.95 220.12 1.85L220.12 1.85Q220.12 1.3 220.37 0.53 220.62-0.25 220.82-0.9L220.82-0.9Q222.42-5.8 223.82-10.05 225.22-14.3 226.62-18.3 228.02-22.3 229.6-26.3 231.17-30.3 233.12-34.65L233.12-34.65Q231.22-34.3 229.75-33.63 228.27-32.95 227.37-32.43 226.47-31.9 226.17-31.9L226.17-31.9Q225.97-31.9 225.6-32.13 225.22-32.35 224.92-32.68 224.62-33 224.62-33.25L224.62-33.25Q225.92-33.8 227.7-34.45 229.47-35.1 231.52-35.55 233.57-36 235.67-36L235.67-36Q237.87-36 240.15-35.4 242.42-34.8 244.32-33.58 246.22-32.35 247.37-30.55 248.52-28.75 248.52-26.35L248.52-26.35Q248.52-23.75 247.37-21.88 246.22-20 244.32-18.73 242.42-17.45 240.22-16.68 238.02-15.9 235.85-15.48 233.67-15.05 231.97-14.93 230.27-14.8 229.47-14.8L229.47-14.8 228.97-14.8Q227.47-9.65 226.1-4.65 224.72 0.35 223.57 4.35ZM229.17-15.6L229.17-15.6Q231.92-15.75 234.75-16.5 237.57-17.25 239.92-18.68 242.27-20.1 243.72-22.23 245.17-24.35 245.17-27.2L245.17-27.2Q245.17-29.9 243.9-31.6 242.62-33.3 240.55-34.13 238.47-34.95 236.12-34.95L236.12-34.95Q234.27-31.3 232.52-26.2 230.77-21.1 229.17-15.6ZM244.17 2.35L244.17 2.35Q242.62 2.35 241.55 1.33 240.47 0.3 240.47-1.8L240.47-1.8Q240.47-3.6 241.27-5.68 242.07-7.75 243.47-9.78 244.87-11.8 246.65-13.48 248.42-15.15 250.4-16.15 252.37-17.15 254.32-17.15L254.32-17.15Q256.27-17.15 257.57-16.13 258.87-15.1 258.87-13.4L258.87-13.4Q258.87-12.15 258.2-11.7 257.52-11.25 256.42-11.25L256.42-11.25Q256.52-11.65 256.6-12.13 256.67-12.6 256.67-13L256.67-13Q256.67-14.15 256.12-14.98 255.57-15.8 254.22-15.8L254.22-15.8Q252.82-15.8 251.37-14.83 249.92-13.85 248.57-12.23 247.22-10.6 246.17-8.7 245.12-6.8 244.52-4.95 243.92-3.1 243.92-1.65L243.92-1.65Q243.92 0.3 245.27 0.3L245.27 0.3Q246.42 0.3 247.77-0.78 249.12-1.85 250.55-3.53 251.97-5.2 253.27-7 254.57-8.8 255.57-10.3L255.57-10.3Q255.77-10.6 255.82-10.6L255.82-10.6Q256.12-10.55 256.6-10.4 257.07-10.25 257.42-10 257.77-9.75 257.77-9.35L257.77-9.35Q257.77-8.9 257.32-8.13 256.87-7.35 256.32-6.35 255.77-5.35 255.32-4.33 254.87-3.3 254.87-2.4L254.87-2.4Q254.87-1.65 255.27-0.93 255.67-0.2 256.57-0.2L256.57-0.2Q257.92-0.2 260.12-2.18 262.32-4.15 264.57-8.1L264.57-8.1 265.07-7.6Q264.02-4.9 262.37-2.85 260.72-0.8 258.85 0.35 256.97 1.5 255.17 1.5L255.17 1.5Q253.32 1.5 252.45 0.4 251.57-0.7 251.57-2L251.57-2Q251.57-2.3 251.62-2.68 251.67-3.05 251.72-3.45L251.72-3.45Q249.57-0.55 247.8 0.9 246.02 2.35 244.17 2.35ZM267.72 1.5L267.72 1.5Q265.57 1.5 264.64 0.03 263.72-1.45 263.72-3.65L263.72-3.65Q263.72-6.05 264.62-9.35 265.52-12.65 266.99-16.3 268.47-19.95 270.22-23.43 271.97-26.9 273.72-29.75 275.47-32.6 276.94-34.3 278.42-36 279.27-36L279.27-36Q279.82-36 280.17-35.38 280.52-34.75 280.72-33.88 280.92-33 280.92-32.3L280.92-32.3Q280.92-30.95 280.24-28.78 279.57-26.6 278.34-23.93 277.12-21.25 275.44-18.53 273.77-15.8 271.79-13.3 269.82-10.8 267.62-9L267.62-9Q267.32-7.65 267.14-6.38 266.97-5.1 266.97-3.95L266.97-3.95Q266.97-2 267.52-1.05 268.07-0.1 269.17-0.1L269.17-0.1Q270.52-0.1 271.84-1.3 273.17-2.5 274.34-4.33 275.52-6.15 276.37-8.1L276.37-8.1 277.12-7.7Q275.12-3.45 272.77-0.98 270.42 1.5 267.72 1.5ZM268.07-10.7L268.07-10.7Q269.82-12.45 271.47-14.73 273.12-17 274.54-19.45 275.97-21.9 277.07-24.2 278.17-26.5 278.77-28.33 279.37-30.15 279.37-31.15L279.37-31.15Q279.37-31.65 279.24-31.8 279.12-31.95 279.02-31.95L279.02-31.95Q278.62-31.95 277.64-30.68 276.67-29.4 275.37-27.25 274.07-25.1 272.72-22.35 271.37-19.6 270.14-16.6 268.92-13.6 268.07-10.7Z" opacity="1" transform="matrix(1,0,0,1,0,0)" fill="#c09c88" class="wordmark-text-0" data-fill-palette-color="primary" id="text-0"></path></svg></g></svg></g></svg></g></svg></g><g><svg viewBox="0 0 170.87155081543554 170.87155081543554" height="170.87155081543554" width="170.87155081543554"><g><svg></svg></g><g id="icon-0"><svg viewBox="0 0 170.87155081543554 170.87155081543554" height="170.87155081543554" width="170.87155081543554"><g><path d="M0 85.436c0-47.185 38.251-85.436 85.436-85.436 47.185 0 85.436 38.251 85.436 85.436 0 47.185-38.251 85.436-85.436 85.436-47.185 0-85.436-38.251-85.436-85.436zM85.436 164.543c43.69 0 79.107-35.417 79.107-79.107 0-43.69-35.417-79.107-79.107-79.107-43.69 0-79.107 35.417-79.107 79.107 0 43.69 35.417 79.107 79.107 79.107z" data-fill-palette-color="accent" fill="#c09c88" stroke="transparent"></path></g><g transform="matrix(1,0,0,1,35.994249429437374,45.40330799796809)"><svg viewBox="0 0 98.88305195656079 80.06493481949936" height="80.06493481949936" width="98.88305195656079"><g><svg xmlns="http://www.w3.org/2000/svg" xmlns:xlink="http://www.w3.org/1999/xlink" version="1.1" x="0" y="0" viewBox="23.737919469552274 32.06731292033092 57.91908224922586 46.89668707966908" enable-background="new 0 0 100 100" xml:space="preserve" height="80.06493481949936" width="98.88305195656079" class="icon-cg-0" data-fill-palette-color="accent" id="cg-0"><path fill="#c09c88" d="M66.846 32.183c-8.546-0.94-14.009 7.748-14.009 7.748l-0.279-0.042c0 0-5.465-8.688-14.011-7.751-8.543 0.94-25.214 11.15-5.742 29.27C52.279 79.529 47.654 74.177 52.558 78.92l0.279 0.044c4.903-4.742 0.28 0.609 19.753-17.513C92.062 43.333 75.391 33.121 66.846 32.183zM67.552 46.42c-7.095 5.64-14.42 14.769-14.494 14.86l-2.44 3.054-5.901-11.542c-0.634-1.241-0.143-2.762 1.099-3.396 1.241-0.634 2.762-0.143 3.397 1.098l2.386 4.668c2.864-3.313 7.813-8.72 12.812-12.694 1.091-0.867 2.68-0.686 3.547 0.405C68.825 43.964 68.643 45.552 67.552 46.42z" data-fill-palette-color="accent"></path></svg></g></svg></g></svg></g></svg></g></svg></g><defs></defs></svg><rect width="395.52" height="112.72758764435538" fill="none" stroke="none" visibility="hidden"></rect></g></svg></g></svg>